<svg width="24" height="24" viewBox="0 0 24 24" fill="none" xmlns="http://www.w3.org/2000/svg">
<g clip-path="url(#clip0_2078_1645)">
<path d="M18.9726 17.431C19.0448 17.3589 19.0825 17.2206 19.0571 17.1219L17.0752 9.47829C19.9648 6.4669 20.3639 4.85178 19.7559 4.24395C19.1479 3.63612 17.533 4.03542 14.5212 6.92485L6.87782 4.94315C6.77915 4.91738 6.64066 4.95524 6.56866 5.02724L5.85061 5.74547C5.77861 5.81747 5.79035 5.91952 5.8771 5.97303L11.8926 9.69714C10.7033 11.0502 9.36263 12.6938 7.86111 14.6687L4.40847 14.4662C4.3578 14.463 4.28723 14.4901 4.25114 14.526L4.02251 14.7544C3.9866 14.7905 3.99442 14.8376 4.04047 14.8598L7.48262 16.5174L9.14005 19.9594C9.16228 20.0055 9.20939 20.0135 9.24548 19.9774L9.47392 19.7489C9.51001 19.7128 9.53686 19.6424 9.53366 19.5916L9.33117 16.1386C11.3061 14.6371 12.9495 13.2964 14.3029 12.1071L18.0267 18.1228C18.0804 18.2094 18.1824 18.2213 18.2544 18.1493L18.9726 17.431Z" fill="#757575"/>
</g>
<defs>
<clipPath id="clip0_2078_1645">
<rect width="24" height="24" fill="white"/>
</clipPath>
</defs>
</svg>
