<svg width="122" height="36" viewBox="0 0 122 36" fill="none" xmlns="http://www.w3.org/2000/svg">
<path opacity="0.6" fill-rule="evenodd" clip-rule="evenodd" d="M20.9929 6.05594C22.8294 6.09925 24.5775 6.84287 25.8698 8.13057H25.8794C26.5509 8.78037 27.0842 9.55567 27.4484 10.4111C27.8125 11.2666 28 12.1851 28 13.1129C28 14.0407 27.8125 14.9592 27.4484 15.8147C27.1019 16.6287 26.6021 17.3702 25.9759 18C25.9441 17.968 25.9119 17.9362 25.8794 17.9048L16.021 8.18182L6.16265 17.9048C6.12984 17.9362 6.09738 17.968 6.06526 18C4.77609 16.7149 4.03583 14.9886 4.00127 13.1777C3.96584 11.3217 4.6746 9.52686 5.97348 8.18338C7.27236 6.83989 9.05639 6.0563 10.9378 6.00292C12.8192 5.94954 14.646 6.63068 16.021 7.8983C17.3743 6.67299 19.1564 6.01263 20.9929 6.05594ZM6.06526 18C4.77609 19.2851 4.03583 21.0114 4.00127 22.8223C3.96584 24.6783 4.6746 26.4731 5.97348 27.8166C7.27236 29.1601 9.05639 29.9437 10.9378 29.9971C12.8192 30.0505 14.646 29.3693 16.021 28.1017C17.3743 29.327 19.1564 29.9874 20.9929 29.9441C22.8294 29.9007 24.5775 29.1571 25.8698 27.8694H25.8794C26.5509 27.2196 27.0842 26.4443 27.4484 25.5889C27.8125 24.7334 28 23.8149 28 22.8871C28 21.9593 27.8125 21.0408 27.4484 20.1853C27.1019 19.3713 26.6021 18.6298 25.9759 18C25.9441 18.032 25.9119 18.0638 25.8794 18.0952L16.021 27.8182L6.16265 18.0952C6.12984 18.0638 6.09738 18.032 6.06526 18Z" fill="#FF007A"/>
<path fill-rule="evenodd" clip-rule="evenodd" d="M25.976 18C25.9441 17.968 25.912 17.9362 25.8795 17.9048L16.0211 8.18182L6.1627 17.9048C6.12989 17.9362 6.09743 17.968 6.06531 18C6.09743 18.032 6.12989 18.0638 6.1627 18.0952L16.0211 27.8182L25.8795 18.0952C25.912 18.0638 25.9441 18.032 25.976 18Z" fill="#FF007A"/>
<path d="M41.5234 8.9375H47.8867C49.1914 8.9375 50.3125 9.13281 51.25 9.52344C52.1953 9.91406 52.9219 10.4922 53.4297 11.2578C53.9375 12.0234 54.1914 12.9648 54.1914 14.082C54.1914 14.9961 54.0352 15.7812 53.7227 16.4375C53.418 17.0859 52.9844 17.6289 52.4219 18.0664C51.8672 18.4961 51.2148 18.8398 50.4648 19.0977L49.3516 19.6836H43.8203L43.7969 16.9414H47.9102C48.5273 16.9414 49.0391 16.832 49.4453 16.6133C49.8516 16.3945 50.1562 16.0898 50.3594 15.6992C50.5703 15.3086 50.6758 14.8555 50.6758 14.3398C50.6758 13.793 50.5742 13.3203 50.3711 12.9219C50.168 12.5234 49.8594 12.2188 49.4453 12.0078C49.0312 11.7969 48.5117 11.6914 47.8867 11.6914H45.0391V26H41.5234V8.9375ZM51.0625 26L47.1719 18.3945L50.8867 18.3711L54.8242 25.8359V26H51.0625ZM56.1484 19.7891V19.543C56.1484 18.6133 56.2812 17.7578 56.5469 16.9766C56.8125 16.1875 57.1992 15.5039 57.707 14.9258C58.2148 14.3477 58.8398 13.8984 59.582 13.5781C60.3242 13.25 61.1758 13.0859 62.1367 13.0859C63.0977 13.0859 63.9531 13.25 64.7031 13.5781C65.4531 13.8984 66.082 14.3477 66.5898 14.9258C67.1055 15.5039 67.4961 16.1875 67.7617 16.9766C68.0273 17.7578 68.1602 18.6133 68.1602 19.543V19.7891C68.1602 20.7109 68.0273 21.5664 67.7617 22.3555C67.4961 23.1367 67.1055 23.8203 66.5898 24.4062C66.082 24.9844 65.457 25.4336 64.7148 25.7539C63.9727 26.0742 63.1211 26.2344 62.1602 26.2344C61.1992 26.2344 60.3438 26.0742 59.5938 25.7539C58.8516 25.4336 58.2227 24.9844 57.707 24.4062C57.1992 23.8203 56.8125 23.1367 56.5469 22.3555C56.2812 21.5664 56.1484 20.7109 56.1484 19.7891ZM59.5234 19.543V19.7891C59.5234 20.3203 59.5703 20.8164 59.6641 21.2773C59.7578 21.7383 59.9062 22.1445 60.1094 22.4961C60.3203 22.8398 60.5938 23.1094 60.9297 23.3047C61.2656 23.5 61.6758 23.5977 62.1602 23.5977C62.6289 23.5977 63.0312 23.5 63.3672 23.3047C63.7031 23.1094 63.9727 22.8398 64.1758 22.4961C64.3789 22.1445 64.5273 21.7383 64.6211 21.2773C64.7227 20.8164 64.7734 20.3203 64.7734 19.7891V19.543C64.7734 19.0273 64.7227 18.543 64.6211 18.0898C64.5273 17.6289 64.375 17.2227 64.1641 16.8711C63.9609 16.5117 63.6914 16.2305 63.3555 16.0273C63.0195 15.8242 62.6133 15.7227 62.1367 15.7227C61.6602 15.7227 61.2539 15.8242 60.918 16.0273C60.5898 16.2305 60.3203 16.5117 60.1094 16.8711C59.9062 17.2227 59.7578 17.6289 59.6641 18.0898C59.5703 18.543 59.5234 19.0273 59.5234 19.543ZM77.0898 22.4961C77.0898 22.2539 77.0195 22.0352 76.8789 21.8398C76.7383 21.6445 76.4766 21.4648 76.0938 21.3008C75.7188 21.1289 75.1758 20.9727 74.4648 20.832C73.8242 20.6914 73.2266 20.5156 72.6719 20.3047C72.125 20.0859 71.6484 19.8242 71.2422 19.5195C70.8438 19.2148 70.5312 18.8555 70.3047 18.4414C70.0781 18.0195 69.9648 17.5391 69.9648 17C69.9648 16.4688 70.0781 15.9688 70.3047 15.5C70.5391 15.0312 70.8711 14.6172 71.3008 14.2578C71.7383 13.8906 72.2695 13.6055 72.8945 13.4023C73.5273 13.1914 74.2383 13.0859 75.0273 13.0859C76.1289 13.0859 77.0742 13.2617 77.8633 13.6133C78.6602 13.9648 79.2695 14.4492 79.6914 15.0664C80.1211 15.6758 80.3359 16.3711 80.3359 17.1523H76.9609C76.9609 16.8242 76.8906 16.5312 76.75 16.2734C76.6172 16.0078 76.4062 15.8008 76.1172 15.6523C75.8359 15.4961 75.4688 15.418 75.0156 15.418C74.6406 15.418 74.3164 15.4844 74.043 15.6172C73.7695 15.7422 73.5586 15.9141 73.4102 16.1328C73.2695 16.3438 73.1992 16.5781 73.1992 16.8359C73.1992 17.0312 73.2383 17.207 73.3164 17.3633C73.4023 17.5117 73.5391 17.6484 73.7266 17.7734C73.9141 17.8984 74.1562 18.0156 74.4531 18.125C74.7578 18.2266 75.1328 18.3203 75.5781 18.4062C76.4922 18.5938 77.3086 18.8398 78.0273 19.1445C78.7461 19.4414 79.3164 19.8477 79.7383 20.3633C80.1602 20.8711 80.3711 21.5391 80.3711 22.3672C80.3711 22.9297 80.2461 23.4453 79.9961 23.9141C79.7461 24.3828 79.3867 24.793 78.918 25.1445C78.4492 25.4883 77.8867 25.7578 77.2305 25.9531C76.582 26.1406 75.8516 26.2344 75.0391 26.2344C73.8594 26.2344 72.8594 26.0234 72.0391 25.6016C71.2266 25.1797 70.6094 24.6445 70.1875 23.9961C69.7734 23.3398 69.5664 22.668 69.5664 21.9805H72.7656C72.7812 22.4414 72.8984 22.8125 73.1172 23.0938C73.3438 23.375 73.6289 23.5781 73.9727 23.7031C74.3242 23.8281 74.7031 23.8906 75.1094 23.8906C75.5469 23.8906 75.9102 23.832 76.1992 23.7148C76.4883 23.5898 76.707 23.4258 76.8555 23.2227C77.0117 23.0117 77.0898 22.7695 77.0898 22.4961ZM88.3984 26.2344C87.4141 26.2344 86.5312 26.0781 85.75 25.7656C84.9688 25.4453 84.3047 25.0039 83.7578 24.4414C83.2188 23.8789 82.8047 23.2266 82.5156 22.4844C82.2266 21.7344 82.082 20.9375 82.082 20.0938V19.625C82.082 18.6641 82.2188 17.7852 82.4922 16.9883C82.7656 16.1914 83.1562 15.5 83.6641 14.9141C84.1797 14.3281 84.8047 13.8789 85.5391 13.5664C86.2734 13.2461 87.1016 13.0859 88.0234 13.0859C88.9219 13.0859 89.7188 13.2344 90.4141 13.5312C91.1094 13.8281 91.6914 14.25 92.1602 14.7969C92.6367 15.3438 92.9961 16 93.2383 16.7656C93.4805 17.5234 93.6016 18.3672 93.6016 19.2969V20.7031H83.5234V18.4531H90.2852V18.1953C90.2852 17.7266 90.1992 17.3086 90.0273 16.9414C89.8633 16.5664 89.6133 16.2695 89.2773 16.0508C88.9414 15.832 88.5117 15.7227 87.9883 15.7227C87.543 15.7227 87.1602 15.8203 86.8398 16.0156C86.5195 16.2109 86.2578 16.4844 86.0547 16.8359C85.8594 17.1875 85.7109 17.6016 85.6094 18.0781C85.5156 18.5469 85.4688 19.0625 85.4688 19.625V20.0938C85.4688 20.6016 85.5391 21.0703 85.6797 21.5C85.8281 21.9297 86.0352 22.3008 86.3008 22.6133C86.5742 22.9258 86.9023 23.168 87.2852 23.3398C87.6758 23.5117 88.1172 23.5977 88.6094 23.5977C89.2188 23.5977 89.7852 23.4805 90.3086 23.2461C90.8398 23.0039 91.2969 22.6406 91.6797 22.1562L93.3203 23.9375C93.0547 24.3203 92.6914 24.6875 92.2305 25.0391C91.7773 25.3906 91.2305 25.6797 90.5898 25.9062C89.9492 26.125 89.2188 26.2344 88.3984 26.2344ZM102.379 22.4961C102.379 22.2539 102.309 22.0352 102.168 21.8398C102.027 21.6445 101.766 21.4648 101.383 21.3008C101.008 21.1289 100.465 20.9727 99.7539 20.832C99.1133 20.6914 98.5156 20.5156 97.9609 20.3047C97.4141 20.0859 96.9375 19.8242 96.5312 19.5195C96.1328 19.2148 95.8203 18.8555 95.5938 18.4414C95.3672 18.0195 95.2539 17.5391 95.2539 17C95.2539 16.4688 95.3672 15.9688 95.5938 15.5C95.8281 15.0312 96.1602 14.6172 96.5898 14.2578C97.0273 13.8906 97.5586 13.6055 98.1836 13.4023C98.8164 13.1914 99.5273 13.0859 100.316 13.0859C101.418 13.0859 102.363 13.2617 103.152 13.6133C103.949 13.9648 104.559 14.4492 104.98 15.0664C105.41 15.6758 105.625 16.3711 105.625 17.1523H102.25C102.25 16.8242 102.18 16.5312 102.039 16.2734C101.906 16.0078 101.695 15.8008 101.406 15.6523C101.125 15.4961 100.758 15.418 100.305 15.418C99.9297 15.418 99.6055 15.4844 99.332 15.6172C99.0586 15.7422 98.8477 15.9141 98.6992 16.1328C98.5586 16.3438 98.4883 16.5781 98.4883 16.8359C98.4883 17.0312 98.5273 17.207 98.6055 17.3633C98.6914 17.5117 98.8281 17.6484 99.0156 17.7734C99.2031 17.8984 99.4453 18.0156 99.7422 18.125C100.047 18.2266 100.422 18.3203 100.867 18.4062C101.781 18.5938 102.598 18.8398 103.316 19.1445C104.035 19.4414 104.605 19.8477 105.027 20.3633C105.449 20.8711 105.66 21.5391 105.66 22.3672C105.66 22.9297 105.535 23.4453 105.285 23.9141C105.035 24.3828 104.676 24.793 104.207 25.1445C103.738 25.4883 103.176 25.7578 102.52 25.9531C101.871 26.1406 101.141 26.2344 100.328 26.2344C99.1484 26.2344 98.1484 26.0234 97.3281 25.6016C96.5156 25.1797 95.8984 24.6445 95.4766 23.9961C95.0625 23.3398 94.8555 22.668 94.8555 21.9805H98.0547C98.0703 22.4414 98.1875 22.8125 98.4062 23.0938C98.6328 23.375 98.918 23.5781 99.2617 23.7031C99.6133 23.8281 99.9922 23.8906 100.398 23.8906C100.836 23.8906 101.199 23.832 101.488 23.7148C101.777 23.5898 101.996 23.4258 102.145 23.2227C102.301 23.0117 102.379 22.7695 102.379 22.4961ZM118.141 15.2305V10.6016L116.512 15.2305H115.902L114.262 10.6133V15.2305H113.207V8.9375H114.52L116.207 13.6016L117.883 8.9375H119.195V15.2305H118.141ZM112.281 8.9375V9.88672H110.547V15.2305H109.48V9.88672H107.758V8.9375H112.281Z" fill="white"/>
</svg>
