<svg width="26" height="27" viewBox="0 0 26 27" fill="none" xmlns="http://www.w3.org/2000/svg">
<path fill-rule="evenodd" clip-rule="evenodd" d="M2.5 14.1944C2.5 9.53754 6.76261 5.75 12 5.75C17.2374 5.75 21.5 9.53754 21.5 14.1944C21.5 18.8513 17.2374 22.6389 12 22.6389H4.31188C4.18736 22.6393 4.06511 22.6055 3.95833 22.541C3.85156 22.4766 3.76433 22.3841 3.70609 22.2734C3.64629 22.1636 3.61773 22.0394 3.62356 21.9144C3.62939 21.7893 3.66938 21.6683 3.73913 21.5646L4.88464 19.7982C4.13844 19.0691 3.54347 18.1983 3.13416 17.2365C2.72484 16.2746 2.50929 15.2406 2.5 14.1944ZM5.91574 20.827H12.0377C16.3026 20.827 19.7754 17.8107 19.7754 14.1385C19.7754 10.4664 16.3026 7.45 12.0377 7.45C7.77279 7.45 4.3 10.4664 4.3 14.1385C4.31284 14.9725 4.49366 15.7953 4.83166 16.5579C5.16966 17.3204 5.6579 18.007 6.26722 18.5766C6.46729 18.7678 6.59412 19.0231 6.62574 19.2981C6.65736 19.5731 6.59177 19.8504 6.44033 20.0821L5.91574 20.827Z" fill="#757575"/>
<path d="M20 10.75C22.2091 10.75 24 8.95914 24 6.75C24 4.54086 22.2091 2.75 20 2.75C17.7909 2.75 16 4.54086 16 6.75C16 8.95914 17.7909 10.75 20 10.75Z" fill="#FF8383"/>
<path d="M20 11.75C22.7614 11.75 25 9.51142 25 6.75C25 3.98858 22.7614 1.75 20 1.75C17.2386 1.75 15 3.98858 15 6.75C15 9.51142 17.2386 11.75 20 11.75Z" stroke="black" stroke-width="2"/>
</svg>
