<svg width="16" height="16" viewBox="0 0 16 16" fill="none" xmlns="http://www.w3.org/2000/svg">
<path fill-rule="evenodd" clip-rule="evenodd" d="M1.59998 7.99999C1.59998 6.73419 1.97533 5.49682 2.67857 4.44434C3.38181 3.39187 4.38135 2.57157 5.5508 2.08716C6.72025 1.60276 8.00708 1.47602 9.24855 1.72297C10.49 1.96991 11.6304 2.57945 12.5255 3.47451C13.4205 4.36957 14.0301 5.50994 14.277 6.75142C14.5239 7.99289 14.3972 9.27972 13.9128 10.4492C13.4284 11.6186 12.6081 12.6182 11.5556 13.3214C10.5032 14.0246 9.26578 14.4 7.99998 14.4C6.30329 14.3977 4.67676 13.7227 3.47702 12.5229C2.27729 11.3232 1.60227 9.69668 1.59998 7.99999ZM2.88064 7.99999C2.88025 9.01291 3.18027 10.0032 3.74275 10.8456C4.30523 11.6879 5.10491 12.3446 6.04064 12.7324C6.97636 13.1203 8.00609 13.2219 8.99957 13.0244C9.99305 12.827 10.9056 12.3393 11.6219 11.6231C12.3382 10.9069 12.826 9.99436 13.0236 9.00091C13.2212 8.00745 13.1197 6.97771 12.732 6.04194C12.3443 5.10616 11.6877 4.3064 10.8454 3.74381C10.0031 3.18121 9.01289 2.88106 7.99998 2.88133C6.64274 2.88256 5.34143 3.42222 4.38166 4.38187C3.42189 5.34152 2.88205 6.64276 2.88064 7.99999ZM7.33331 7.33333H8.66664V11.3333H7.33331V7.33333ZM8.66664 4.66666H7.33331V5.99999H8.66664V4.66666Z" fill="#555555"/>
</svg>
