<svg width="24" height="24" viewBox="0 0 24 24" fill="none" xmlns="http://www.w3.org/2000/svg">
<path fill-rule="evenodd" clip-rule="evenodd" d="M6.27342 20.9999H17.7279C18.306 21.0037 18.8747 20.8542 19.3763 20.5668C19.8779 20.2794 20.2943 19.8642 20.5834 19.3636C20.8725 18.838 21.0165 18.245 21.0006 17.6454V6.27271C21.0006 5.40474 20.6558 4.57231 20.0421 3.95856C19.4283 3.3448 18.5959 3 17.7279 3H6.27342C5.40544 3 4.57301 3.3448 3.95926 3.95856C3.34551 4.57231 3.0007 5.40474 3.0007 6.27271V7.09089C3.0007 7.30789 3.0869 7.516 3.24034 7.66943C3.39378 7.82287 3.60189 7.90907 3.81888 7.90907C4.03588 7.90907 4.24398 7.82287 4.39742 7.66943C4.55086 7.516 4.63706 7.30789 4.63706 7.09089V6.27271C4.63706 5.83873 4.80946 5.42251 5.11634 5.11564C5.42322 4.80876 5.83943 4.63636 6.27342 4.63636H17.7279C18.1619 4.63636 18.5781 4.80876 18.885 5.11564C19.1919 5.42251 19.3643 5.83873 19.3643 6.27271V17.7272C19.3643 18.1612 19.1919 18.5774 18.885 18.8843C18.5781 19.1912 18.1619 19.3636 17.7279 19.3636H6.27342C5.83943 19.3636 5.42322 19.1912 5.11634 18.8843C4.80946 18.5774 4.63706 18.1612 4.63706 17.7272V13.3581C4.62297 13.1381 4.6776 12.9192 4.7934 12.7315C4.90919 12.5439 5.08043 12.3969 5.28342 12.3109C5.54641 12.2078 5.83862 12.2078 6.1016 12.3109C6.24894 12.3663 6.40914 12.378 6.56297 12.3446C6.7168 12.3112 6.85773 12.2342 6.96887 12.1227C7.06141 12.0299 7.13031 11.9163 7.16978 11.7913C7.20925 11.6664 7.21814 11.5338 7.19568 11.4047C7.17323 11.2756 7.1201 11.1538 7.04077 11.0495C6.96143 10.9452 6.85821 10.8615 6.73978 10.8054C6.36379 10.6573 5.95963 10.5944 5.55642 10.6213C5.15321 10.6482 4.76097 10.7642 4.40797 10.9609C3.97012 11.2174 3.60878 11.5863 3.36136 12.0293C3.11394 12.4724 2.98942 12.9735 3.0007 13.4809V17.7272C3.0007 18.5952 3.34551 19.4276 3.95926 20.0414C4.57301 20.6551 5.40544 20.9999 6.27342 20.9999ZM15.3879 8.01544H12.9334V7.19726C12.9334 6.98027 12.8472 6.77216 12.6938 6.61872C12.5403 6.46528 12.3322 6.37908 12.1152 6.37908C11.8982 6.37908 11.6901 6.46528 11.5367 6.61872C11.3832 6.77216 11.297 6.98027 11.297 7.19726V8.01544H8.8425C8.39063 8.01544 8.02432 8.38175 8.02432 8.83362C8.02432 9.28549 8.39063 9.6518 8.8425 9.6518H12.8874C12.6311 10.5333 12.1073 11.4665 11.4858 12.353C11.3293 12.1315 11.1908 11.9119 11.0761 11.6972C10.9892 11.5303 10.8472 11.3984 10.6744 11.3239C10.5015 11.2493 10.3082 11.2367 10.127 11.2881C10.013 11.3245 9.90841 11.3855 9.82053 11.4667C9.73264 11.5479 9.66364 11.6474 9.61839 11.7582C9.57314 11.869 9.55275 11.9884 9.55864 12.1079C9.56453 12.2274 9.59657 12.3442 9.6525 12.45C9.87584 12.846 10.1602 13.2537 10.4815 13.6598C9.55325 14.7752 8.60444 15.7084 8.07341 16.2054C7.95624 16.3234 7.87781 16.4743 7.84857 16.6381C7.81934 16.8018 7.84069 16.9705 7.90977 17.1218C7.97048 17.2257 8.05338 17.315 8.15254 17.3832C8.25172 17.4514 8.36472 17.4969 8.48349 17.5165C8.60227 17.536 8.72389 17.5291 8.83969 17.4962C8.95549 17.4634 9.0626 17.4053 9.15341 17.3263C9.75189 16.7482 10.6238 15.8636 11.4994 14.8265C12.5057 15.8894 13.6115 16.848 14.3325 17.4409C14.4266 17.5131 14.5352 17.564 14.6509 17.5901C14.7666 17.6161 14.8866 17.6168 15.0026 17.5918C15.1185 17.5669 15.2277 17.5171 15.3225 17.4458C15.4173 17.3746 15.4954 17.2835 15.5516 17.179C15.6283 17.016 15.649 16.8321 15.6105 16.6561C15.5721 16.48 15.4766 16.3216 15.3388 16.2054L15.3014 16.1739C14.6602 15.6334 13.4905 14.6476 12.4938 13.5741C13.4296 12.3118 14.2413 10.9332 14.5547 9.6518H15.3879C15.8398 9.6518 16.2061 9.28549 16.2061 8.83362C16.2061 8.38175 15.8398 8.01544 15.3879 8.01544Z" fill="#757575"/>
</svg>
