<svg width="40" height="40" viewBox="0 0 40 40" fill="none" xmlns="http://www.w3.org/2000/svg">
<circle cx="20" cy="20" r="19.5" stroke="#232323"/>
<path opacity="0.6" fill-rule="evenodd" clip-rule="evenodd" d="M23.7447 11.042C25.1221 11.0744 26.4331 11.6321 27.4024 12.5979H27.4096C27.9132 13.0853 28.3132 13.6668 28.5863 14.3084C28.8593 14.95 29 15.6388 29 16.3347C29 17.0305 28.8593 17.7194 28.5863 18.361C28.3264 18.9715 27.9516 19.5276 27.482 20C27.4581 19.976 27.4339 19.9522 27.4096 19.9286L20.0158 12.6364L12.622 19.9286C12.5974 19.9522 12.573 19.976 12.5489 20C11.5821 19.0362 11.0269 17.7414 11.001 16.3833C10.9744 14.9912 11.5059 13.6451 12.4801 12.6375C13.4543 11.6299 14.7923 11.0422 16.2034 11.0022C17.6144 10.9622 18.9845 11.473 20.0158 12.4237C21.0307 11.5047 22.3673 11.0095 23.7447 11.042ZM12.5489 20C11.5821 20.9638 11.0269 22.2586 11.001 23.6167C10.9744 25.0088 11.5059 26.3549 12.4801 27.3625C13.4543 28.3701 14.7923 28.9578 16.2034 28.9978C17.6144 29.0378 18.9845 28.527 20.0158 27.5763C21.0307 28.4953 22.3673 28.9905 23.7447 28.958C25.1221 28.9256 26.4331 28.3679 27.4024 27.4021H27.4096C27.9132 26.9147 28.3132 26.3332 28.5863 25.6916C28.8593 25.05 29 24.3612 29 23.6653C29 22.9695 28.8593 22.2806 28.5863 21.639C28.3264 21.0285 27.9516 20.4724 27.482 20C27.4581 20.024 27.4339 20.0478 27.4096 20.0714L20.0158 27.3636L12.622 20.0714C12.5974 20.0478 12.573 20.024 12.5489 20Z" fill="#757575"/>
<path fill-rule="evenodd" clip-rule="evenodd" d="M27.482 20C27.4581 19.976 27.4339 19.9522 27.4096 19.9286L20.0158 12.6364L12.622 19.9286C12.5974 19.9522 12.573 19.976 12.549 20C12.573 20.024 12.5974 20.0478 12.622 20.0714L20.0158 27.3636L27.4096 20.0714C27.4339 20.0478 27.4581 20.024 27.482 20Z" fill="#757575"/>
</svg>
